<svg width="16" height="15" viewBox="0 0 16 15" fill="none" xmlns="http://www.w3.org/2000/svg">
<g id="OverviewIcon2">
<path id="Vector" d="M5.38544 0.649994H2.01354C1.26042 0.649994 0.649902 1.26051 0.649902 2.01363V5.72437C0.649902 6.47749 1.26042 7.08801 2.01354 7.08801H5.38544C6.13856 7.08801 6.74908 6.47749 6.74908 5.72437V2.01363C6.74908 1.26051 6.13856 0.649994 5.38544 0.649994Z" stroke="#455B66" stroke-width="1.3" stroke-linecap="round" stroke-linejoin="round"/>
<path id="Vector_2" d="M13.278 0.649994H9.90612C9.153 0.649994 8.54248 1.26051 8.54248 2.01363V4.41859C8.54248 5.1717 9.153 5.78222 9.90612 5.78222H13.278C14.0311 5.78222 14.6417 5.1717 14.6417 4.41859V2.01363C14.6417 1.26051 14.0311 0.649994 13.278 0.649994Z" stroke="#455B66" stroke-width="1.3" stroke-linecap="round" stroke-linejoin="round"/>
<path id="Vector_3" d="M8.54248 8.91445C8.54248 8.17065 9.15405 7.55081 9.90612 7.55081H13.2863C14.0301 7.55081 14.6499 8.16238 14.6499 8.91445V12.2946C14.6499 13.0384 14.0383 13.6582 13.2863 13.6582H9.90612C9.16232 13.6582 8.54248 13.0467 8.54248 12.2946V8.91445Z" stroke="#455B66" stroke-width="1.3" stroke-linecap="round" stroke-linejoin="round"/>
<path id="Vector_4" d="M5.38544 8.81528H2.01354C1.26042 8.81528 0.649902 9.4258 0.649902 10.1789V12.2946C0.649902 13.0477 1.26042 13.6583 2.01354 13.6583H5.38544C6.13856 13.6583 6.74908 13.0477 6.74908 12.2946V10.1789C6.74908 9.4258 6.13856 8.81528 5.38544 8.81528Z" stroke="#455B66" stroke-width="1.3" stroke-linecap="round" stroke-linejoin="round"/>
</g>
</svg>
