<svg width="16" height="15" viewBox="0 0 16 15" fill="none" xmlns="http://www.w3.org/2000/svg">
<g id="OverviewIcon2">
<path id="Vector" d="M5.88544 0.649994H2.51354C1.76042 0.649994 1.1499 1.26051 1.1499 2.01363V5.72437C1.1499 6.47749 1.76042 7.08801 2.51354 7.08801H5.88544C6.63856 7.08801 7.24908 6.47749 7.24908 5.72437V2.01363C7.24908 1.26051 6.63856 0.649994 5.88544 0.649994Z" stroke="#90A4AF" stroke-width="1.3" stroke-linecap="round" stroke-linejoin="round"/>
<path id="Vector_2" d="M13.778 0.649994H10.4061C9.653 0.649994 9.04248 1.26051 9.04248 2.01363V4.41859C9.04248 5.1717 9.653 5.78222 10.4061 5.78222H13.778C14.5311 5.78222 15.1417 5.1717 15.1417 4.41859V2.01363C15.1417 1.26051 14.5311 0.649994 13.778 0.649994Z" stroke="#90A4AF" stroke-width="1.3" stroke-linecap="round" stroke-linejoin="round"/>
<path id="Vector_3" d="M9.04248 8.91445C9.04248 8.17065 9.65405 7.55081 10.4061 7.55081H13.7863C14.5301 7.55081 15.1499 8.16238 15.1499 8.91445V12.2946C15.1499 13.0384 14.5383 13.6582 13.7863 13.6582H10.4061C9.66232 13.6582 9.04248 13.0467 9.04248 12.2946V8.91445Z" stroke="#90A4AF" stroke-width="1.3" stroke-linecap="round" stroke-linejoin="round"/>
<path id="Vector_4" d="M5.88544 8.81528H2.51354C1.76042 8.81528 1.1499 9.4258 1.1499 10.1789V12.2946C1.1499 13.0477 1.76042 13.6583 2.51354 13.6583H5.88544C6.63856 13.6583 7.24908 13.0477 7.24908 12.2946V10.1789C7.24908 9.4258 6.63856 8.81528 5.88544 8.81528Z" stroke="#90A4AF" stroke-width="1.3" stroke-linecap="round" stroke-linejoin="round"/>
</g>
</svg>
