<svg xmlns="http://www.w3.org/2000/svg" width="13" height="15" viewBox="0 0 13 15" fill="none">
  <path d="M12.8193 13.9243L11.3243 12.4177C11.7153 11.8483 11.9455 11.158 11.9455 10.4148C11.9455 9.17786 11.3119 8.08952 10.3589 7.46473V5.0084L10.3614 5.00336C10.3614 5.00084 10.3589 5.00084 10.3589 4.99832V2.07088C10.3564 0.435842 7.10149 0 5.17822 0C3.25495 0 0 0.435842 0 2.07088V10.9439C0 11.0447 0.0247525 11.1379 0.0668317 11.2235C0.532178 12.5462 3.41584 12.914 5.17822 12.914C5.44802 12.914 5.74257 12.9064 6.05198 12.8863C6.67574 13.5287 7.54208 13.9243 8.49505 13.9243C9.21782 13.9243 9.88861 13.695 10.4455 13.307L11.9431 14.8161C12.0644 14.9395 12.2228 15 12.3812 15C12.5396 15 12.698 14.9395 12.8193 14.8161C13.0619 14.5692 13.0619 14.1711 12.8193 13.9243ZM5.17822 1.25966C7.4901 1.25966 8.80446 1.79123 9.08416 2.07088C8.80446 2.35304 7.4901 2.88462 5.17822 2.88462C2.86634 2.88462 1.55446 2.35304 1.27228 2.07088C1.55446 1.79123 2.86634 1.25966 5.17822 1.25966ZM1.23762 3.49429C2.36139 3.98304 4.01485 4.14427 5.17822 4.14427C6.34158 4.14427 7.99752 3.98304 9.11881 3.49429V4.93786C8.93564 5.2049 7.60891 5.7919 5.17822 5.7919C2.74752 5.7919 1.42327 5.2049 1.23762 4.93786V3.49429ZM1.23762 6.42425C2.36139 6.913 4.01485 7.07424 5.17822 7.07424C6.34158 7.07424 7.99752 6.913 9.11881 6.42425V6.9659C8.91584 6.92811 8.70792 6.90796 8.49505 6.90796C7.19802 6.90796 6.06683 7.63856 5.4802 8.71935C5.38119 8.72439 5.2797 8.72439 5.17822 8.72439C2.74752 8.72439 1.42079 8.13487 1.23762 7.87034V6.42425ZM5.17822 11.6543C2.74752 11.6543 1.42079 11.0648 1.23762 10.8003V9.33154C2.32921 9.80769 3.92079 9.97397 5.07673 9.98404C5.05941 10.1251 5.0495 10.2687 5.0495 10.4148C5.0495 10.8507 5.12871 11.2689 5.27228 11.6543H5.17822ZM8.02228 12.6142C7.42327 12.4807 6.91337 12.0977 6.60644 11.5788C6.40347 11.2387 6.28713 10.8406 6.28713 10.4148C6.28713 10.2511 6.30446 10.0899 6.33663 9.93366C6.4604 9.36681 6.79455 8.87806 7.25 8.56063C7.60644 8.31122 8.03465 8.16762 8.49505 8.16762C8.54455 8.16762 8.59406 8.17014 8.64109 8.17266C9.36139 8.22052 9.98762 8.62109 10.3564 9.20558C10.5767 9.55324 10.7054 9.96893 10.7054 10.4148C10.7054 10.9993 10.4851 11.5284 10.1262 11.929C10.0941 11.9516 10.0644 11.9743 10.0371 12.0045C10.0124 12.0297 9.9901 12.06 9.9703 12.0877C9.57921 12.4454 9.06436 12.6646 8.49753 12.6646C8.33663 12.6646 8.17822 12.647 8.02475 12.6142H8.02228Z" fill="#455B66"/>
</svg>