<svg xmlns="http://www.w3.org/2000/svg" width="13" height="15" viewBox="0 0 13 15" fill="none">
  <path d="M9.81333 6.34063C9.47649 5.98334 8.93342 5.98334 8.59658 6.34063L7.03955 7.99219V1.41146C7.03955 0.908334 6.65459 0.5 6.18026 0.5C5.70593 0.5 5.32097 0.908334 5.32097 1.41146V7.99219L3.65395 6.22396C3.31711 5.86667 2.77404 5.86667 2.4372 6.22396C2.10036 6.58126 2.10036 7.1573 2.4372 7.51459L5.57188 10.8396C5.61313 10.8833 5.65781 10.9198 5.7025 10.9526C5.72312 10.9672 5.74374 10.9781 5.7678 10.9891C5.7953 11.0037 5.8228 11.0219 5.85029 11.0365C5.87779 11.0474 5.90873 11.0547 5.93622 11.0656C5.96028 11.0729 5.98434 11.0839 6.01184 11.0875C6.06683 11.0984 6.12527 11.1057 6.18026 11.1057C6.23525 11.1057 6.29369 11.0984 6.34868 11.0875C6.37618 11.0839 6.3968 11.0729 6.4243 11.0656C6.4518 11.0583 6.48273 11.0511 6.51023 11.0365C6.54116 11.0219 6.56522 11.0073 6.59272 10.9891C6.61334 10.9781 6.6374 10.9672 6.65802 10.9526C6.70614 10.9198 6.75083 10.8797 6.78864 10.8396L9.81333 7.63126C10.1502 7.27396 10.1502 6.69792 9.81333 6.34063Z" fill="#90A4AF"/>
  <path d="M11.3907 14.5H0.859288C0.384961 14.5 0 14.0917 0 13.5886V10.6573C0 10.1542 0.384961 9.74585 0.859288 9.74585C1.33362 9.74585 1.71858 10.1542 1.71858 10.6573V12.6771H10.5314V10.6573C10.5314 10.1542 10.9164 9.74585 11.3907 9.74585C11.8651 9.74585 12.25 10.1542 12.25 10.6573V13.5886C12.25 14.0917 11.8651 14.5 11.3907 14.5Z" fill="#90A4AF"/>
</svg>