<svg width="16" height="16" viewBox="0 0 16 16" fill="none" xmlns="http://www.w3.org/2000/svg">
<g id="SimIcon">
<path id="Vector" d="M2.3437 7.38209C1.80896 6.97807 1.5 6.50275 1.5 6.00366C1.5 4.95795 2.84278 4.04296 4.81537 3.57952" stroke="#90A4AF" stroke-width="1.3" stroke-linecap="round" stroke-linejoin="round"/>
<path id="Vector_2" d="M8.57031 3.27053C11.7668 3.42501 14.2504 4.58955 14.2504 6.01551C14.2504 7.06122 12.9076 7.96433 10.935 8.43965" stroke="#90A4AF" stroke-width="1.3" stroke-linecap="round" stroke-linejoin="round"/>
<path id="Vector_3" d="M13.4303 10.1032C14.1077 10.5786 14.4998 11.1489 14.4998 11.755C14.4998 13.3948 11.6954 14.7139 8.23746 14.7139C4.77949 14.7139 1.9751 13.383 1.9751 11.755C1.9751 10.3528 4.03086 9.18824 6.78773 8.87928" stroke="#90A4AF" stroke-width="1.3" stroke-linecap="round" stroke-linejoin="round"/>
<path id="Vector_4" d="M9.75873 1.5L7.71484 3.15174L9.4973 4.87478" stroke="#90A4AF" stroke-width="1.3" stroke-linecap="round" stroke-linejoin="round"/>
<path id="Vector_5" d="M6.08693 10.7687L7.91692 8.89119L5.94434 7.39393" stroke="#90A4AF" stroke-width="1.3" stroke-linecap="round" stroke-linejoin="round"/>
</g>
</svg>
