<svg xmlns="http://www.w3.org/2000/svg" width="14" height="13" viewBox="0 0 14 13" fill="none">
  <path d="M13.3719 2.9278C13.1665 2.67775 12.7936 2.64036 12.5411 2.84367C12.0313 3.25496 11.2807 3.40919 10.1313 3.34142C10.1313 3.24327 10.1313 3.14512 10.1337 3.04698C10.1691 2.18701 10.339 1.44622 10.6387 0.840972C10.7827 0.551201 10.6623 0.20067 10.3697 0.0604583C10.077 -0.0820907 9.72298 0.0370896 9.57901 0.326861C9.2061 1.077 8.99604 1.97669 8.95356 3.00024C8.94883 3.08437 8.94883 3.17083 8.94883 3.25496C8.21717 3.20822 7.47135 3.20588 6.7326 3.44191C5.69175 3.77374 4.81376 4.56594 4.3842 5.56145C3.99713 6.4588 3.98769 7.39823 4.03253 8.32363C2.96336 8.25118 1.68413 8.22314 0.683403 9.16256C0.447382 9.38456 0.437941 9.75379 0.662161 9.98748C0.777811 10.109 0.933584 10.1698 1.08936 10.1698C1.23569 10.1698 1.38202 10.116 1.49531 10.0085C2.16797 9.37522 3.10261 9.42896 4.0939 9.49907C4.11986 10.3731 4.04197 11.3779 3.47788 12.0392C3.26783 12.2846 3.29851 12.6538 3.54869 12.8618C3.65962 12.9553 3.79415 12.9997 3.92868 12.9997C4.09626 12.9997 4.26383 12.9296 4.37948 12.7917C5.17487 11.8616 5.29996 10.6138 5.27636 9.54113C6.28653 9.51076 7.71445 9.2794 8.83554 8.35868C9.55777 7.76511 10.051 6.89113 10.1856 5.96105C10.2564 5.47031 10.2375 4.98891 10.2021 4.51453C11.1367 4.55659 12.364 4.48415 13.2798 3.7457C13.5323 3.54239 13.5701 3.17317 13.3648 2.92312L13.3719 2.9278ZM9.022 5.79747C8.92759 6.44478 8.58772 7.05003 8.08736 7.46132C7.21409 8.1764 6.04814 8.354 5.22207 8.37737C5.17487 7.52675 5.17015 6.72521 5.47462 6.02181C5.772 5.33243 6.38093 4.78561 7.1008 4.55426C7.69085 4.36497 8.33754 4.37899 9.01964 4.4304C9.0574 4.9118 9.08573 5.36749 9.02436 5.79747H9.022Z" fill="#90A4AF"/>
  <path d="M10.608 2.55388L11.0211 2.96283C11.1367 3.07734 11.2878 3.13343 11.4388 3.13343C11.5899 3.13343 11.7409 3.07734 11.8566 2.96283C12.0879 2.73382 12.0879 2.3646 11.8566 2.13558L11.4436 1.72663C11.2123 1.49762 10.8393 1.49762 10.608 1.72663C10.3767 1.95564 10.3767 2.32487 10.608 2.55388Z" fill="#90A4AF"/>
  <path d="M8.36836 4.71314C8.13706 4.48413 7.76415 4.48413 7.53285 4.71314C7.30155 4.94215 7.30155 5.31138 7.53285 5.54039L7.94589 5.94934C8.06154 6.06385 8.21259 6.11994 8.36364 6.11994C8.51469 6.11994 8.66575 6.06385 8.7814 5.94934C9.0127 5.72033 9.0127 5.35111 8.7814 5.12209L8.36836 4.71314Z" fill="#90A4AF"/>
  <path d="M6.32149 6.71821C6.09019 6.48919 5.71727 6.48919 5.48597 6.71821C5.25468 6.94722 5.25468 7.31645 5.48597 7.54546L5.89901 7.95441C6.01466 8.06892 6.16571 8.125 6.31677 8.125C6.46782 8.125 6.61887 8.06892 6.73452 7.95441C6.96582 7.7254 6.96582 7.35617 6.73452 7.12716L6.32149 6.71821Z" fill="#90A4AF"/>
  <path d="M3.56752 10.3286L3.26778 10.0319C3.03648 9.80285 2.66356 9.80285 2.43226 10.0319C2.20096 10.2609 2.20096 10.6301 2.43226 10.8591L2.73201 11.1559C2.84766 11.2704 2.99871 11.3265 3.14977 11.3265C3.30082 11.3265 3.45187 11.2704 3.56752 11.1559C3.79882 10.9269 3.79882 10.5577 3.56752 10.3286Z" fill="#90A4AF"/>
  <path d="M7.00899 5.40253C6.77769 5.17352 6.40477 5.17352 6.17347 5.40253C5.94218 5.63155 5.94218 6.00077 6.17347 6.22979L7.18364 7.22996C7.29929 7.34447 7.45034 7.40056 7.6014 7.40056C7.75245 7.40056 7.9035 7.34447 8.01915 7.22996C8.25045 7.00095 8.25045 6.63173 8.01915 6.40271L7.00899 5.40253Z" fill="#90A4AF"/>
</svg>