<svg width="17" height="15" viewBox="0 0 17 15" fill="none" xmlns="http://www.w3.org/2000/svg">
<g id="BoootArenIcon2">
<g id="Group 41">
<g id="Group">
<path id="Vector" d="M8.75348 9.24431L6.87736 10.9954L4.83447 8.95247L6.37706 7.30565" stroke="#90A4AF" stroke-width="1.1" stroke-linecap="round" stroke-linejoin="round"/>
<path id="Vector_2" d="M9.09717 4.40799L11.213 2.14622L14.3295 1.5L13.6832 4.62687L11.2651 6.88864" stroke="#90A4AF" stroke-width="1.1" stroke-linecap="round" stroke-linejoin="round"/>
<path id="Vector_3" d="M7.6997 11.8184L4.01465 8.13332L2.60696 9.54101L6.29201 13.2261L7.6997 11.8184Z" stroke="#90A4AF" stroke-width="1.1" stroke-linecap="round" stroke-linejoin="round"/>
<path id="Vector_4" d="M5.21445 12.2035L3.62988 10.6189L1.49992 12.7489L3.0845 14.3335L5.21445 12.2035Z" stroke="#90A4AF" stroke-width="1.1" stroke-linecap="round" stroke-linejoin="round"/>
</g>
<g id="Group_2">
<path id="Vector_5" d="M10.6189 10.9953L12.6618 8.95237L6.29337 2.14622L3.1665 1.5L3.81272 4.62687L10.6189 10.9953Z" stroke="#90A4AF" stroke-width="1.1" stroke-linecap="round" stroke-linejoin="round"/>
<path id="Vector_6" d="M11.2041 13.2235L14.8892 9.53848L13.4815 8.13079L9.79642 11.8158L11.2041 13.2235Z" stroke="#90A4AF" stroke-width="1.1" stroke-linecap="round" stroke-linejoin="round"/>
<path id="Vector_7" d="M14.4149 14.334L15.9995 12.7495L13.8696 10.6195L12.285 12.2041L14.4149 14.334Z" stroke="#90A4AF" stroke-width="1.1" stroke-linecap="round" stroke-linejoin="round"/>
</g>
</g>
</g>
</svg>
