<svg xmlns="http://www.w3.org/2000/svg" width="14" height="14" viewBox="0 0 14 14" fill="none">
  <path d="M8.45387 3.50215L8.45378 3.50108C8.45621 3.50093 8.45943 3.50075 8.46352 3.50058C8.48067 3.49988 8.50357 3.49976 8.5295 3.50052C8.55518 3.50128 8.57998 3.50278 8.60045 3.50463C8.61678 3.5061 8.62547 3.50735 8.62757 3.50764C8.79014 3.54292 8.86022 3.61937 8.89092 3.74446C8.89138 3.74851 8.89202 3.7549 8.89264 3.76379C8.8938 3.78063 8.89452 3.80112 8.89452 3.82334C8.89452 3.86392 8.89216 3.89576 8.89015 3.91261C8.84937 4.08521 8.70315 4.24315 8.45599 4.29135C8.45437 4.29153 8.44544 4.29264 8.42774 4.29373C8.40604 4.29507 8.37942 4.29587 8.35113 4.29587C8.32283 4.29587 8.29622 4.29507 8.27452 4.29373C8.25484 4.29252 8.246 4.29128 8.24599 4.29133C8.24599 4.29133 8.24613 4.29136 8.24639 4.29141C8.08207 4.26192 8.02716 4.19237 8.00118 4.11205L8.00119 4.11204L7.9998 4.10784C7.99207 4.08467 7.9897 4.07242 7.9882 4.06123C7.98624 4.04653 7.98438 4.02216 7.98438 3.97019C7.98438 3.9412 7.98565 3.93061 7.98594 3.92813L7.98595 3.9281C7.9862 3.92596 7.98663 3.92286 7.98782 3.91581L7.9903 3.90148L7.99199 3.89161C8.03022 3.7183 8.19174 3.54584 8.45387 3.50215ZM8.46151 3.49925C8.45843 3.49986 8.45582 3.50033 8.45375 3.50068L8.44806 3.43201L8.46151 3.49925Z" fill="#90A4AF" stroke="#90A4AF"/>
  <path d="M7.028 10.2553L7.03045 10.2584C6.74751 10.4009 6.48896 10.4779 6.26779 10.4963C6.23848 10.4988 6.18553 10.5006 6.13112 10.4998C6.10481 10.4994 6.08258 10.4984 6.06624 10.4972C6.06113 10.4968 6.05745 10.4964 6.05506 10.4962L6.05448 10.4961L6.04437 10.4942C5.94795 10.4769 5.91739 10.4517 5.9126 10.4473C5.91258 10.4473 5.91254 10.4473 5.91249 10.4473C5.9111 10.4462 5.8981 10.4359 5.88766 10.3871C5.88765 10.387 5.88764 10.3869 5.88762 10.3867C5.88716 10.3824 5.88348 10.3479 5.88812 10.2761C5.89266 10.2057 5.9037 10.121 5.92066 10.0322C5.97845 9.75208 6.10619 9.3495 6.27817 8.93519L6.27821 8.9352L6.28061 8.92919C6.3035 8.87197 6.4348 8.55449 6.60335 8.14695C6.66635 7.99461 6.73456 7.82968 6.80426 7.66106L6.80426 7.66107L6.80514 7.65891C6.90681 7.40967 7.00307 7.17787 7.08251 6.98659C7.10201 6.93962 7.1205 6.8951 7.13781 6.85336C7.18133 6.7484 7.21808 6.65932 7.24408 6.59451C7.25689 6.56261 7.26859 6.53286 7.27757 6.5086C7.28183 6.49707 7.28742 6.4816 7.29256 6.46546C7.29501 6.45776 7.29921 6.44417 7.3033 6.4277C7.30333 6.42759 7.30338 6.42739 7.30345 6.4271C7.3042 6.42421 7.30716 6.41281 7.31027 6.39553C7.34022 6.24688 7.33818 6.02851 7.22155 5.84494C7.32199 5.81113 7.42136 5.78593 7.51857 5.76942L7.53101 5.76731L7.54333 5.76457C7.55148 5.76276 7.55833 5.76143 7.56774 5.76005H7.68133H7.68138H7.68143H7.68148H7.68153H7.68159H7.68164H7.6817H7.68175H7.68181H7.68187H7.68193H7.68199H7.68205H7.68212H7.68218H7.68225H7.68231H7.68238H7.68245H7.68252H7.68259H7.68266H7.68273H7.68281H7.68288H7.68296H7.68304H7.68311H7.68319H7.68327H7.68336H7.68344H7.68352H7.68361H7.68369H7.68378H7.68387H7.68396H7.68405H7.68414H7.68423H7.68432H7.68442H7.68451H7.68461H7.68471H7.6848H7.6849H7.685H7.6851H7.68521H7.68531H7.68541H7.68552H7.68563H7.68573H7.68584H7.68595H7.68606H7.68617H7.68628H7.6864H7.68651H7.68663H7.68674H7.68686H7.68698H7.6871H7.68722H7.68734H7.68746H7.68759H7.68771H7.68784H7.68796H7.68809H7.68822H7.68835H7.68848H7.68861H7.68874H7.68887H7.689H7.68914H7.68927H7.68941H7.68955H7.68969H7.68983H7.68997H7.69011H7.69025H7.69039H7.69054H7.69068H7.69083H7.69097H7.69112H7.69127H7.69142H7.69157H7.69172H7.69187H7.69203H7.69218H7.69234H7.69249H7.69265H7.69281H7.69296H7.69312H7.69328H7.69345H7.69361H7.69377H7.69393H7.6941H7.69426H7.69443H7.6946H7.69477H7.69494H7.6951H7.69528H7.69545H7.69562H7.69579H7.69597H7.69614H7.69632H7.69649H7.69667H7.69685H7.69703H7.69721H7.69739H7.69757H7.69775H7.69794H7.69812H7.69831H7.69849H7.69868H7.69887H7.69905H7.69924H7.69943H7.69962H7.69981H7.70001H7.7002H7.70039H7.70059H7.70078H7.70098H7.70118H7.70137H7.70157H7.70177H7.70197H7.70217H7.70237H7.70258H7.70278H7.70298H7.70319H7.70339H7.7036H7.70381H7.70402H7.70422H7.70443H7.70464H7.70485H7.70506H7.70528H7.70549H7.7057H7.70592H7.70613H7.70635H7.70657H7.70678H7.707H7.70722H7.70744H7.70766H7.70788H7.7081H7.70832H7.70855H7.70877H7.709H7.70922H7.70945H7.70967H7.7099H7.71013H7.71036H7.71059H7.71082H7.71105H7.71128H7.71151H7.71174H7.71198H7.71221H7.71245H7.71268H7.71292H7.71316H7.71339H7.71363H7.71387H7.71411H7.71435H7.71459H7.71483H7.71507H7.71532H7.71556H7.7158H7.71605H7.71629H7.71654H7.71679H7.71703H7.71728H7.71753H7.71778H7.71803H7.71828H7.71853H7.71878H7.71903H7.71929H7.71954H7.71979H7.72005H7.7203H7.72056H7.72081H7.72107H7.72133H7.72159H7.72185H7.72211H7.72236H7.72263H7.72289H7.72315H7.72341H7.72367H7.72394H7.7242H7.72446H7.72473H7.725H7.72526H7.72553H7.7258H7.72606H7.72633H7.7266H7.72687H7.72714H7.72741H7.72768H7.72795H7.72823H7.7285H7.72877H7.72905H7.72932H7.72959H7.72987H7.73015H7.73042H7.7307H7.73098H7.73125H7.73153H7.73181H7.73209H7.73237H7.73265H7.73293H7.73321H7.7335H7.73378H7.73406H7.73434H7.73463H7.73491H7.7352H7.73548H7.73577H7.73606H7.73634H7.73663H7.73692H7.73721H7.73749H7.73778H7.73807H7.73836H7.73865H7.73894H7.73923H7.73953H7.73982H7.74011H7.7404H7.7407H7.74099H7.74129H7.74158H7.74188H7.74217H7.74247H7.74277H7.74306H7.74336H7.74366H7.74396H7.74425H7.74455H7.74485H7.74515H7.74545H7.74575H7.74605H7.74636H7.74666H7.74696H7.74726H7.74757H7.74787H7.74817H7.74848H7.74878H7.74909H7.74939H7.7497H7.75H7.75031H7.75062H7.75092H7.75123H7.75154H7.75185H7.75216H7.75247H7.75277H7.75308H7.75339H7.7537H7.75402H7.75433H7.75464H7.75495H7.75526H7.75557H7.75589H7.7562H7.75651H7.75683H7.75714H7.75745H7.75777H7.75808H7.7584H7.75871H7.75903H7.75935H7.75966H7.75998H7.7603H7.76061H7.76093H7.76125H7.76157H7.76189H7.76221H7.76252H7.76284H7.76316H7.76348H7.7638H7.76412H7.76444H7.76477H7.76509H7.76541H7.76573H7.76605H7.76637H7.7667H7.76702H7.76734H7.76767H7.76799H7.76831H7.76864H7.76896H7.76929H7.76961H7.76994H7.77026H7.77059H7.77091H7.77124H7.77156H7.77189H7.77222H7.77254H7.77287H7.7732H7.77352H7.77385H7.77418H7.77451H7.77484H7.77516H7.77549H7.77582H7.77615H7.77648H7.77681H7.77714H7.77747H7.7778H7.77813H7.77846H7.77879H7.77912H7.77945H7.77978H7.78011H7.78044H7.78077H7.78111H7.78144H7.78177H7.7821H7.78243H7.78277H7.7831H7.78343H7.78376H7.7841H7.78443H7.78476H7.78509H7.78543H7.78576H7.7861H7.78643H7.78676H7.7871H7.78743H7.78776H7.7881H7.78843H7.78877H7.7891H7.78944H7.78977H7.79011H7.79044H7.79078H7.79111H7.79145H7.79178H7.79212H7.79245H7.79279H7.79312H7.79346H7.7938H7.79413H7.79447H7.7948H7.79514H7.79548H7.79581H7.79615H7.79649H7.79682H7.79716H7.79749H7.79783H7.79817H7.7985H7.79884H7.79918H7.79951H7.79985H7.80019H7.80052H7.80086H7.8012H7.80154H7.80187H7.80221H7.80255H7.80288H7.80322H7.80356H7.80389H7.80423H7.80457C8.00919 5.76005 8.0816 5.80397 8.11407 5.83305C8.12864 5.84788 8.13428 5.85465 8.1362 5.8571C8.13625 5.85722 8.13631 5.85734 8.13637 5.85747L8.13629 5.85751L8.14018 5.86585C8.15153 5.89016 8.15601 5.90563 8.15926 5.92423C8.16346 5.94825 8.16721 5.9877 8.16721 6.06519C8.16721 6.15417 8.1517 6.24513 8.09241 6.43039L8.09002 6.43787L8.08786 6.44541C8.08925 6.44055 8.08796 6.4441 8.08236 6.45951C8.07659 6.47536 8.06627 6.50376 8.0496 6.54845C8.02174 6.62315 7.98326 6.72487 7.93732 6.84549C7.84552 7.0865 7.72514 7.39973 7.60303 7.71631C7.36013 8.346 7.11303 8.98196 7.07025 9.08922C7.02128 9.20763 6.97564 9.32189 6.94235 9.4256C6.91211 9.51984 6.88189 9.63513 6.87782 9.75886C6.87167 9.83621 6.87538 9.92435 6.90249 10.0173C6.93339 10.1232 6.98485 10.2014 7.028 10.2553Z" fill="#90A4AF" stroke="#90A4AF"/>
  <path d="M7.3999 13C10.7136 13 13.3999 10.3137 13.3999 7C13.3999 3.68629 10.7136 1 7.3999 1C4.08619 1 1.3999 3.68629 1.3999 7C1.3999 10.3137 4.08619 13 7.3999 13Z" stroke="#90A4AF" stroke-width="1.2" stroke-linecap="round" stroke-linejoin="round"/>
</svg>