<svg width="15" height="16" viewBox="0 0 15 16" fill="none" xmlns="http://www.w3.org/2000/svg">
<g id="LockIcon_3">
<path id="Vector" d="M7.46186 12.7756C7.07996 12.7756 6.77002 12.5035 6.77002 12.1683V9.30693C6.77002 8.97173 7.07996 8.69968 7.46186 8.69968C7.84375 8.69968 8.15369 8.97173 8.15369 9.30693V12.1683C8.15369 12.5035 7.84375 12.7756 7.46186 12.7756Z" fill="#455B66"/>
<path id="Vector_2" d="M11.8132 5.61955V3.58402C11.8132 1.6068 9.89547 -0.0012207 7.54046 -0.0012207C5.18545 -0.0012207 3.26768 1.6068 3.26768 3.58402V5.58554C1.65708 5.94989 0.464355 7.23242 0.464355 8.75785V12.7196C0.464355 14.5292 2.14137 16.0012 4.20304 16.0012H10.7284C12.7901 16.0012 14.4671 14.5292 14.4671 12.7196V8.75785C14.4671 7.281 13.3491 6.03005 11.816 5.61955H11.8132ZM7.53769 1.21329C9.13168 1.21329 10.4268 2.27721 10.4268 3.58402V5.47866H4.64858V3.58402C4.64858 2.27721 5.9437 1.21329 7.53769 1.21329ZM13.0779 12.7196C13.0779 13.8588 12.0208 14.7867 10.7229 14.7867H4.20027C2.90239 14.7867 1.84526 13.8588 1.84526 12.7196V8.75785C1.84526 7.61864 2.90239 6.69075 4.20027 6.69075H10.7257C12.0236 6.69075 13.0807 7.61864 13.0807 8.75785V12.7196H13.0779Z" fill="#455B66"/>
</g>
</svg>
