<svg width="17" height="17" viewBox="0 0 17 17" fill="none" xmlns="http://www.w3.org/2000/svg">
<g id="Log_Icon">
<path id="Vector" d="M5.26858 1.17969V4.44243C5.26858 4.91302 4.88165 5.29995 4.41106 5.29995H1.17969V5.24766C1.17969 5.24766 1.19015 5.17446 1.22152 5.15354L5.15354 1.21106C5.15354 1.21106 5.21629 1.17969 5.24766 1.17969H5.26858Z" stroke="#90A4AF" stroke-width="1.3" stroke-linecap="round" stroke-linejoin="round"/>
<path id="Vector_2" d="M7.40186 4.02441H10.8215" stroke="#90A4AF" stroke-width="1.3" stroke-linecap="round" stroke-linejoin="round"/>
<path id="Vector_3" d="M7.40186 6.06348H9.97441" stroke="#90A4AF" stroke-width="1.3" stroke-linecap="round" stroke-linejoin="round"/>
<path id="Vector_4" d="M14.8476 8.46875H5.83319C5.30184 8.46875 4.87109 8.89949 4.87109 9.43084V11.3759C4.87109 11.9073 5.30184 12.338 5.83319 12.338H14.8476C15.3789 12.338 15.8097 11.9073 15.8097 11.3759V9.43084C15.8097 8.89949 15.3789 8.46875 14.8476 8.46875Z" stroke="#90A4AF" stroke-width="1.3" stroke-miterlimit="10"/>
<path id="Vector_5" d="M15.8202 14.1152V14.429C15.8202 15.1924 15.2032 15.8198 14.4293 15.8198H5.26855" stroke="#90A4AF" stroke-width="1.3" stroke-linecap="round" stroke-linejoin="round"/>
<path id="Vector_6" d="M5.26855 1.17969H14.4293C15.1927 1.17969 15.8202 1.79668 15.8202 2.57054V6.6908" stroke="#90A4AF" stroke-width="1.3" stroke-linecap="round" stroke-linejoin="round"/>
<path id="Vector_7" d="M12.9235 14.1156V14.4398C12.9235 15.2032 12.3065 15.8307 11.5326 15.8307H2.57054C1.80714 15.8307 1.17969 15.2137 1.17969 14.4398V5.20583L5.18492 1.17969H11.5326C12.296 1.17969 12.9235 1.79668 12.9235 2.57054V6.6908" stroke="#90A4AF" stroke-width="1.3" stroke-linecap="round" stroke-linejoin="round"/>
</g>
</svg>
