<svg width="20" height="21" viewBox="0 0 20 21" fill="none" xmlns="http://www.w3.org/2000/svg">
<g id="28">
<path id="Vector" d="M19.0525 15.495L17.77 13.65C17.5949 13.3992 17.5007 13.1009 17.5 12.795V7.5C17.5 5.51088 16.7098 3.60322 15.3033 2.1967C13.8968 0.790176 11.9891 0 10 0C8.01087 0 6.10322 0.790176 4.6967 2.1967C3.29017 3.60322 2.5 5.51088 2.5 7.5V12.795C2.49927 13.1009 2.40506 13.3992 2.23 13.65L0.947498 15.495C0.753308 15.7102 0.625611 15.977 0.57985 16.2632C0.534089 16.5494 0.572224 16.8427 0.689642 17.1077C0.807061 17.3727 0.998735 17.598 1.24148 17.7563C1.48423 17.9147 1.76766 17.9993 2.0575 18H6.325C6.49713 18.8477 6.95705 19.6099 7.6268 20.1573C8.29656 20.7047 9.13498 21.0038 10 21.0038C10.865 21.0038 11.7034 20.7047 12.3732 20.1573C13.043 19.6099 13.5029 18.8477 13.675 18H17.9425C18.2323 17.9993 18.5158 17.9147 18.7585 17.7563C19.0013 17.598 19.1929 17.3727 19.3104 17.1077C19.4278 16.8427 19.4659 16.5494 19.4201 16.2632C19.3744 15.977 19.2467 15.7102 19.0525 15.495ZM10 19.5C9.53579 19.4987 9.08335 19.3538 8.7047 19.0853C8.32605 18.8167 8.03973 18.4377 7.885 18H12.115C11.9603 18.4377 11.6739 18.8167 11.2953 19.0853C10.9166 19.3538 10.4642 19.4987 10 19.5ZM2.0575 16.5C2.0914 16.4685 2.12159 16.4333 2.1475 16.395L3.46 14.505C3.81013 14.0034 3.99855 13.4067 4 12.795V7.5C4 5.9087 4.63214 4.38258 5.75736 3.25736C6.88258 2.13214 8.4087 1.5 10 1.5C11.5913 1.5 13.1174 2.13214 14.2426 3.25736C15.3679 4.38258 16 5.9087 16 7.5V12.795C16.0014 13.4067 16.1899 14.0034 16.54 14.505L17.8525 16.395C17.8784 16.4333 17.9086 16.4685 17.9425 16.5H2.0575Z" fill="#437A82"/>
</g>
</svg>
