<svg width="14" height="16" viewBox="0 0 14 16" fill="none" xmlns="http://www.w3.org/2000/svg">
<g id="ScanSummaryIcon">
<g id="Group">
<path id="Vector" d="M7.73279 11.9958C10.0948 11.9958 12.0095 10.081 12.0095 7.71901C12.0095 5.35704 10.0948 3.44228 7.73279 3.44228C5.37082 3.44228 3.45605 5.35704 3.45605 7.71901C3.45605 10.081 5.37082 11.9958 7.73279 11.9958Z" stroke="#90A4AF" stroke-width="1.2" stroke-linecap="round" stroke-linejoin="round"/>
<path id="Vector_2" d="M5.92676 6.59613H9.77301" stroke="#90A4AF" stroke-width="1.2" stroke-linecap="round" stroke-linejoin="round"/>
<path id="Vector_3" d="M5.92676 8.96373H8.68745" stroke="#90A4AF" stroke-width="1.2" stroke-linecap="round" stroke-linejoin="round"/>
<path id="Vector_4" d="M11.0356 11.0124L13.1693 13.1461" stroke="#90A4AF" stroke-width="1.2" stroke-linecap="round" stroke-linejoin="round"/>
<path id="Vector_5" d="M11.2326 15H2.65107C2.01471 15 1.5 14.4853 1.5 13.8489V2.15107C1.5 1.51471 2.01471 1 2.65107 1H12.0187C12.6551 1 13.1698 1.51471 13.1698 2.15107V4.27021" stroke="#90A4AF" stroke-width="1.2" stroke-linecap="round" stroke-linejoin="round"/>
</g>
</g>
</svg>
