<svg xmlns="http://www.w3.org/2000/svg" width="11" height="15" viewBox="0 0 11 15" fill="none">
  <path d="M10.9853 4.82847C10.9823 4.80971 10.9735 4.79095 10.9705 4.7722C10.9617 4.74093 10.9558 4.70967 10.944 4.6784C10.9381 4.65965 10.9263 4.64401 10.9175 4.62838C10.9027 4.60024 10.8909 4.57211 10.8733 4.54397C10.8615 4.52521 10.8497 4.51271 10.8349 4.49395C10.8173 4.46894 10.7996 4.44705 10.7789 4.42517C10.776 4.42204 10.773 4.41579 10.7701 4.41266L7.06216 0.711008C7.06216 0.711008 7.02974 0.685997 7.01501 0.673491C6.99732 0.657859 6.97964 0.642227 6.959 0.626595C6.93837 0.61409 6.91774 0.601584 6.89711 0.592205C6.87647 0.579699 6.85584 0.567194 6.83521 0.557815C6.81163 0.548435 6.7851 0.542183 6.76152 0.532803C6.74089 0.526551 6.72026 0.517171 6.69963 0.514045C6.65246 0.504666 6.60531 0.498413 6.5552 0.498413H1.60343C0.719185 0.498413 0 1.26125 0 2.19917V12.8008C0 13.7387 0.719185 14.5015 1.60343 14.5015H9.39952C10.2838 14.5015 11.0029 13.7387 11.0029 12.8008V4.98167C11.0029 4.95978 10.9971 4.9379 10.9971 4.91288C10.9971 4.88475 10.9941 4.85348 10.9882 4.82847H10.9853ZM7.29502 3.0902L8.37969 4.17193L7.75482 4.16255C7.50134 4.15942 7.29502 3.93745 7.29502 3.66858V3.0902ZM9.39952 12.9352H1.60343C1.53269 12.9352 1.47374 12.8727 1.47374 12.7977V2.19917C1.47374 2.12414 1.53269 2.06161 1.60343 2.06161H5.82128V3.66858C5.82128 4.78783 6.67899 5.71011 7.73124 5.72575L9.52626 5.75388V12.8008C9.52626 12.8758 9.46731 12.9383 9.39657 12.9383L9.39952 12.9352Z" fill="#90A4AF"/>
  <path d="M3.52789 11.3032C3.12113 11.3032 2.79102 10.9531 2.79102 10.5216V5.73198C2.79102 5.30053 3.12113 4.95038 3.52789 4.95038C3.93464 4.95038 4.26476 5.30053 4.26476 5.73198V10.5216C4.26476 10.9531 3.93464 11.3032 3.52789 11.3032Z" fill="#90A4AF"/>
  <path d="M7.29168 8.90841H5.815C5.40824 8.90841 5.07812 8.55826 5.07812 8.12681C5.07812 7.69537 5.40824 7.34521 5.815 7.34521H7.29168C7.69844 7.34521 8.02855 7.69537 8.02855 8.12681C8.02855 8.55826 7.69844 8.90841 7.29168 8.90841Z" fill="#90A4AF"/>
  <path d="M7.69645 11.0625H5.8189C5.41215 11.0625 5.08203 10.7124 5.08203 10.2809C5.08203 9.84948 5.41215 9.49933 5.8189 9.49933H7.69645C8.1032 9.49933 8.43332 9.84948 8.43332 10.2809C8.43332 10.7124 8.1032 11.0625 7.69645 11.0625Z" fill="#90A4AF"/>
</svg>