<svg width="58" height="32" viewBox="0 0 58 32" fill="none" xmlns="http://www.w3.org/2000/svg">
<g id="TW_Logo">
<path id="Vector" d="M53.898 31.9976C52.9024 31.9976 52.062 31.6531 51.3693 30.9604C50.6765 30.2714 50.332 29.4424 50.332 28.4733C50.332 27.5042 50.6765 26.6638 51.3693 25.9445C52.0582 25.2253 52.9024 24.8657 53.898 24.8657C54.8936 24.8657 55.734 25.2253 56.4267 25.9445C57.1157 26.6638 57.464 27.5042 57.464 28.4733C57.464 29.4424 57.1195 30.2676 56.4267 30.9604C55.7378 31.6493 54.8936 31.9976 53.898 31.9976Z" fill="#397E87"/>
<path id="Vector_2" d="M27.2674 22.2043C27.4453 21.6403 27.627 21.0725 27.8012 20.5084C29.1072 16.2951 30.4094 12.0818 31.7192 7.87229C31.7874 7.65273 31.882 7.44074 31.9918 7.24011C32.147 6.96376 32.3817 6.77449 32.7035 6.72149C32.9079 6.68742 33.1161 6.64578 33.3243 6.64199C34.1192 6.63442 34.918 6.63064 35.713 6.64199C36.5079 6.64957 36.8978 6.90698 37.1477 7.66409C37.6587 9.22752 38.1433 10.7985 38.6316 12.3695C39.631 15.5569 40.6266 18.7481 41.626 21.9356C41.6563 22.0378 41.7168 22.1286 41.766 22.2233H41.8531C41.9515 21.9091 42.0575 21.5987 42.1522 21.2845C43.4392 17.1431 44.7263 13.0017 46.0134 8.86032C46.1459 8.42877 46.2898 8.001 46.426 7.57324C46.6153 6.98648 47.0241 6.65714 47.6336 6.65335C49.3825 6.63821 51.1352 6.64199 52.888 6.63821C53.1908 6.63821 53.134 6.83506 53.0772 7.00919C52.8652 7.64516 52.6495 8.28113 52.4261 8.91332C50.8892 13.2818 49.3485 17.6466 47.8078 22.0113C46.7667 24.9564 45.7295 27.8978 44.6809 30.8392C44.3553 31.7515 44.0336 31.9786 43.0758 31.9824C42.2052 31.99 41.3345 31.99 40.4638 31.9824C39.5591 31.9748 39.1994 31.7136 38.9193 30.8467C38.4348 29.3514 37.9729 27.8524 37.4959 26.3533C36.5458 23.3476 35.5918 20.3419 34.6416 17.3361C34.6189 17.2604 34.5849 17.1847 34.5243 17.0295C34.4486 17.1734 34.388 17.2491 34.3615 17.3361C33.5136 19.9784 32.6694 22.6245 31.8252 25.2668C31.2384 27.1028 30.6555 28.9388 30.0687 30.7748C30.0081 30.9641 29.9249 31.1458 29.8378 31.3237C29.6712 31.6682 29.3987 31.8878 29.0126 31.9256C28.6151 31.9635 28.2176 31.9937 27.8201 31.9975C27.1501 32.0051 26.48 31.9937 25.8062 31.9824C24.9204 31.971 24.5759 31.7363 24.2806 30.9073C23.4402 28.5603 22.6112 26.2094 21.7784 23.8586C20.6087 20.5614 19.4427 17.2642 18.2578 13.9708C17.8074 12.714 16.8837 12.0894 15.5436 12.0818C14.7373 12.078 13.931 12.0742 13.1209 12.0818C12.8672 12.0818 12.7612 12.0061 12.7612 11.7411C12.7688 10.1588 12.765 8.5764 12.7612 6.99405C12.7612 6.77449 12.8369 6.66092 13.0679 6.66092C14.8395 6.67985 16.6149 6.6155 18.379 6.72906C20.8206 6.88805 22.5052 8.22056 23.391 10.4767C23.8907 11.7525 24.2503 13.0812 24.663 14.391C25.4541 16.9084 26.2378 19.4295 27.0251 21.9469C27.0554 22.0378 27.1046 22.1248 27.1425 22.2119L27.2523 22.2043H27.2674Z" fill="#397E87"/>
<path id="Vector_3" d="M14.7068 30.9998V26.442C14.7068 26.2224 14.5175 26.0445 14.298 26.0634C13.5636 26.124 12.7421 26.1808 12.3825 26.177C11.5308 26.1694 10.8229 25.5221 10.732 24.6779C10.7017 24.3978 10.6904 24.1177 10.6904 23.8375C10.6866 16.1908 10.6904 8.54775 10.6904 0.900959C10.6904 0.132494 10.5579 0 9.80076 0C8.16541 0.00378554 6.53006 0.00378554 4.8947 0.00378554C4.22466 0.00378554 4.0581 0.170349 4.0581 0.829033C4.0581 2.32811 4.0581 5.44361 4.0581 6.37107C4.0581 6.5187 3.94075 6.63605 3.79311 6.63605H0.264988C0.117352 6.63605 0 6.7534 0 6.90104V11.6708C0 11.8185 0.117352 11.9358 0.264988 11.9358H3.79311C3.94075 11.9358 4.0581 12.0532 4.0581 12.2008C4.0581 12.303 4.0581 12.4128 4.0581 12.4771C4.06188 16.6223 4.03917 20.7713 4.09595 24.9164C4.10731 25.8855 4.28902 26.8811 4.57293 27.8086C5.33383 30.2881 7.36666 31.7455 10.0922 31.9045C11.4172 31.984 12.7194 31.844 14.0027 31.5487C14.298 31.4654 14.65 31.3518 14.7068 30.9998Z" fill="#397E87"/>
</g>
</svg>
